<svg version="1.1" xmlns="http://www.w3.org/2000/svg" viewBox="0 0 2615.0416111668355 2420.788961038961" width="2615.0416111668355" height="2420.788961038961">
  <!-- svg-source:excalidraw -->
  
  <defs>
    <style>
      @font-face {
        font-family: "Virgil";
        src: url("https://excalidraw.com/Virgil.woff2");
      }
      @font-face {
        font-family: "Cascadia";
        src: url("https://excalidraw.com/Cascadia.woff2");
      }
    </style>
  </defs>
  <rect x="0" y="0" width="2615.0416111668355" height="2420.788961038961" fill="#ffffff"></rect><g transform="translate(1182.6680596344647 10) rotate(0 193.99999999999994 22.5)"><text x="0" y="32" font-family="Virgil, Segoe UI Emoji" font-size="36px" fill="#000000" text-anchor="start" style="white-space: pre;" direction="ltr">Java Einf체hrungskizze</text></g><g transform="translate(1852.1081750745802 297.4675324675325) rotate(0 73 22.5)"><text x="0" y="32" font-family="Virgil, Segoe UI Emoji" font-size="36px" fill="#000000" text-anchor="start" style="white-space: pre;" direction="ltr">C / C++</text></g><g transform="translate(615.2250581914634 266.5584415584416) rotate(0 45.5 22.5)"><text x="0" y="32" font-family="Virgil, Segoe UI Emoji" font-size="36px" fill="#000000" text-anchor="start" style="white-space: pre;" direction="ltr">Java</text></g><g transform="translate(1798.731551697957 379.5454545454546) rotate(0 181 17)"><text x="0" y="27" font-family="Cascadia, Segoe UI Emoji" font-size="28px" fill="#000000" text-anchor="start" style="white-space: pre;" direction="ltr">cout &gt;&gt; "Hello World";</text></g><g stroke-linecap="round"><g transform="translate(1930.549733516139 422.81818181818187) rotate(0 -0.9989985526660803 36.26807237640364)"><path d="M-0.22 -0.28 C-0.15 11.66, -0.25 60.25, -0.53 72.56 M-1.8 -1.47 C-1.77 10.58, -1.65 61.81, -1.29 74" stroke="#000000" stroke-width="1" fill="none"></path></g><g transform="translate(1930.549733516139 422.81818181818187) rotate(0 -0.9989985526660803 36.26807237640364)"><path d="M-12.39 46.58 C-9.67 50.37, -5.63 57.25, -0.2 74.12 M-12.19 45.89 C-7.17 56.32, -2.82 69.37, -1.75 74.98" stroke="#000000" stroke-width="1" fill="none"></path></g><g transform="translate(1930.549733516139 422.81818181818187) rotate(0 -0.9989985526660803 36.26807237640364)"><path d="M8.13 46.3 C6.36 50.11, 5.92 57.06, -0.2 74.12 M8.33 45.61 C5.17 55.95, 1.34 69.11, -1.75 74.98" stroke="#000000" stroke-width="1" fill="none"></path></g></g><g stroke-linecap="round" transform="translate(1863.2770062434115 511.00000000000006) rotate(0 77.72727272727275 22.727272727272748)"><path d="M-1.99 -1.97 C40.63 -1.53, 80.54 -1.06, 155.19 -1.38 M0.68 -0.85 C34.6 0.65, 69.98 0.47, 155.99 0.4 M154.14 -1.47 C156.55 9.36, 156.2 21.85, 154.31 46.98 M155.97 0.8 C156 8.64, 156.12 18.38, 154.87 45.39 M155.49 47.35 C120.3 45.02, 86.61 47.06, 1.25 43.65 M156.26 45.2 C112.14 44.75, 68.59 43.77, 0.93 44.97 M-1.87 44.36 C-1.94 25.97, -0.47 11.05, -1.04 0.46 M-0.75 45.45 C-0.66 33.99, 0.41 23.86, -0.48 0.12" stroke="#000000" stroke-width="1" fill="none"></path></g><g transform="translate(1872.3679153343205 514.7727272727273) rotate(0 66 17)"><text x="0" y="27" font-family="Cascadia, Segoe UI Emoji" font-size="28px" fill="#000000" text-anchor="start" style="white-space: pre;" direction="ltr">Compiler</text></g><g stroke-linecap="round"><g transform="translate(1920.248577251435 557.3636363636364) rotate(0 -38.525185077556216 69.1025987793293)"><path d="M0.1 0.26 C-12.53 23.47, -63.4 115.9, -76.39 138.86 M-1.31 -0.65 C-14.01 22.28, -64.79 113.98, -77.15 137.33" stroke="#000000" stroke-width="1" fill="none"></path></g><g transform="translate(1920.248577251435 557.3636363636364) rotate(0 -38.525185077556216 69.1025987793293)"><path d="M-72.28 108.26 C-72.01 113.27, -74.58 122.34, -76.45 138.57 M-72.13 108.07 C-73.81 118.04, -76.03 127.97, -77.82 138.29" stroke="#000000" stroke-width="1" fill="none"></path></g><g transform="translate(1920.248577251435 557.3636363636364) rotate(0 -38.525185077556216 69.1025987793293)"><path d="M-54.25 118.05 C-58.43 120.65, -65.47 127.29, -76.45 138.57 M-54.1 117.87 C-61.64 124.83, -69.73 131.58, -77.82 138.29" stroke="#000000" stroke-width="1" fill="none"></path></g></g><g transform="translate(1771.45882442523 705.6818181818182) rotate(0 74.5 17)"><text x="0" y="27" font-family="Cascadia, Segoe UI Emoji" font-size="28px" fill="#000000" text-anchor="start" style="white-space: pre;" direction="ltr">101110101</text></g><g stroke-linecap="round" transform="translate(1783.2770062434115 815.5454545454545) rotate(0 74.54545454545462 74.09090909090904)"><path d="M-1.25 1.37 C32.2 2.11, 62.68 3.19, 148.06 0.54 M0.67 0.8 C40.79 0.27, 82.61 -0.23, 148.29 -0.91 M150.75 1.66 C149.82 53.99, 147.67 110.57, 149.47 148.98 M148.21 -0.36 C149.36 50.4, 150.21 100.33, 148.18 147.44 M147.44 150.09 C98.23 150.81, 46.37 147.77, -1.33 149.77 M148.67 148.64 C116.22 146.51, 83.93 148.31, 0.86 148.8 M-0.25 147.65 C-0.11 108.82, -0.04 74.01, 0.47 0.67 M0.15 147.56 C0.4 95.29, -0.61 44.75, 0 0.07" stroke="#000000" stroke-width="1" fill="none"></path></g><g transform="translate(1810.5497335161385 868.4090909090908) rotate(0 25 17)"><text x="0" y="27" font-family="Cascadia, Segoe UI Emoji" font-size="28px" fill="#000000" text-anchor="start" style="white-space: pre;" direction="ltr">AMD</text></g><g stroke-linecap="round" transform="translate(1975.0951880615935 816) rotate(0 74.54545454545462 74.09090909090904)"><path d="M-1.82 -1.47 C48.32 0.18, 95.94 -1.51, 151 -0.29 M-0.67 0.8 C58.68 0.24, 118.44 0.37, 149.55 -0.39 M150.8 1.23 C147.9 32.53, 147.4 64.14, 148.56 148.32 M149.32 0.33 C149.77 34.22, 150.01 68.2, 148.46 148.87 M149.09 148.32 C114.8 150.87, 79.23 151.19, -0.76 147.73 M149.92 149.11 C117.11 149.16, 83.77 148.65, 0.38 147.98 M1.01 149.43 C0.73 106.49, -1.7 67.48, 1.63 1.88 M0.19 148.72 C0.64 101.3, -0.34 52.67, 0.79 -0.82" stroke="#000000" stroke-width="1" fill="none"></path></g><g transform="translate(2002.3679153343205 868.8636363636363) rotate(0 41.5 17)"><text x="0" y="27" font-family="Cascadia, Segoe UI Emoji" font-size="28px" fill="#000000" text-anchor="start" style="white-space: pre;" direction="ltr">Intel</text></g><g transform="translate(1964.231551697957 706.7272727272727) rotate(0 74.5 17)"><text x="0" y="27" font-family="Cascadia, Segoe UI Emoji" font-size="28px" fill="#000000" text-anchor="start" style="white-space: pre;" direction="ltr">000001111</text></g><g stroke-linecap="round"><g transform="translate(1934.1860971525025 558.2727272727273) rotate(0 43.02313566920532 69.31335660066624)"><path d="M0.53 0.98 C14.91 23.89, 72.55 113.9, 86.69 136.54 M-0.64 0.46 C13.57 23.65, 71.18 115.79, 85.91 138.17" stroke="#000000" stroke-width="1" fill="none"></path></g><g transform="translate(1934.1860971525025 558.2727272727273) rotate(0 43.02313566920532 69.31335660066624)"><path d="M63.73 120.48 C70.25 124.33, 78.74 130.43, 84.9 139.68 M61.93 120.46 C71.21 126.61, 80.63 133.05, 85.99 137.65" stroke="#000000" stroke-width="1" fill="none"></path></g><g transform="translate(1934.1860971525025 558.2727272727273) rotate(0 43.02313566920532 69.31335660066624)"><path d="M81.02 109.43 C81.66 117.07, 84.35 126.87, 84.9 139.68 M79.22 109.41 C82.01 119.79, 84.94 130.37, 85.99 137.65" stroke="#000000" stroke-width="1" fill="none"></path></g></g><g stroke-linecap="round"><g transform="translate(1842.3679153343205 743.7272727272725) rotate(0 -0.5918322227514636 32.10414497725074)"><path d="M0.69 0.52 C0.27 10.9, -1.63 52.7, -1.88 63.16 M-0.4 -0.26 C-0.53 10.21, 0.46 53.69, 0.26 64.47" stroke="#000000" stroke-width="1" fill="none"></path></g><g transform="translate(1842.3679153343205 743.7272727272725) rotate(0 -0.5918322227514636 32.10414497725074)"><path d="M-9.27 34.5 C-6.96 46.22, -3.07 57.66, 2.18 64.77 M-9.3 36.44 C-7.73 41.05, -5.79 46.67, 0.56 65.37" stroke="#000000" stroke-width="1" fill="none"></path></g><g transform="translate(1842.3679153343205 743.7272727272725) rotate(0 -0.5918322227514636 32.10414497725074)"><path d="M11.25 34.4 C6.26 46.28, 2.85 57.75, 2.18 64.77 M11.22 36.34 C8.67 41.09, 6.51 46.74, 0.56 65.37" stroke="#000000" stroke-width="1" fill="none"></path></g></g><g stroke-linecap="round"><g transform="translate(2048.731551697957 746.4545454545453) rotate(0 1.6746640591121604 35.37421355407261)"><path d="M-0.3 1.13 C0.11 12.73, 2.94 58.83, 3.65 70.07 M1.74 0.68 C1.89 11.92, 2.43 56.97, 2.72 68.46" stroke="#000000" stroke-width="1" fill="none"></path></g><g transform="translate(2048.731551697957 746.4545454545453) rotate(0 1.6746640591121604 35.37421355407261)"><path d="M-6.15 40.48 C-2.02 52.25, -0.23 63.41, 1.81 68.03 M-7.18 40.51 C-4.85 47.49, -2.4 53.68, 1.72 67.98" stroke="#000000" stroke-width="1" fill="none"></path></g><g transform="translate(2048.731551697957 746.4545454545453) rotate(0 1.6746640591121604 35.37421355407261)"><path d="M14.37 40.12 C10.33 51.98, 3.96 63.28, 1.81 68.03 M13.34 40.16 C10.67 47.4, 8.12 53.68, 1.72 67.98" stroke="#000000" stroke-width="1" fill="none"></path></g></g><g stroke-linecap="round" transform="translate(1704.3159672823726 974.5064935064937) rotate(0 272.72727272727275 71.36363636363637)"><path d="M0.31 0.6 C168.7 -0.88, 336.89 -0.89, 545.05 0.65 M-0.21 0.13 C185.51 -2.32, 370.68 -2.15, 545.5 -0.31 M545.38 -0.82 C543.69 54.86, 546.6 107.3, 544.69 144.25 M546.27 0.27 C545.34 57.17, 544.69 113.49, 546.16 141.93 M545.6 142.93 C361.7 144.33, 179.18 144.8, -0.59 142.83 M545.6 143.11 C419.86 140.93, 294.62 140.88, -0.22 142.42 M-0.5 142.81 C-0.82 105, 1.38 65.99, -0.6 0.67 M-0.92 143.47 C1.03 88.48, 0.27 35.03, -0.28 0.29" stroke="#000000" stroke-width="1" fill="none"></path></g><g transform="translate(1782.3679153343205 1043.863636363637) rotate(0 189 17)"><text x="0" y="27" font-family="Cascadia, Segoe UI Emoji" font-size="28px" fill="#000000" text-anchor="start" style="white-space: pre;" direction="ltr">Windows / Linux / MacOS</text></g><g stroke-linecap="round"><g transform="translate(661.5340443374822 398.8634579880819) rotate(0 0.06552197904619561 40.89102271091955)"><path d="M0.36 -0.46 C0.51 13.39, 0.9 68.37, 1.04 82.08 M-0.91 -1.75 C-0.86 12.38, 0.2 69.42, 0.51 83.53" stroke="#000000" stroke-width="1" fill="none"></path></g><g transform="translate(661.5340443374822 398.8634579880819) rotate(0 0.06552197904619561 40.89102271091955)"><path d="M-11.08 56.87 C-7.43 65.9, -4.51 71.06, 0.38 81.73 M-9.83 55.03 C-6.87 65.8, -2.05 75.75, -0.07 83.45" stroke="#000000" stroke-width="1" fill="none"></path></g><g transform="translate(661.5340443374822 398.8634579880819) rotate(0 0.06552197904619561 40.89102271091955)"><path d="M9.44 56.46 C6.66 65.68, 3.17 70.97, 0.38 81.73 M10.69 54.62 C6.2 65.34, 3.58 75.44, -0.07 83.45" stroke="#000000" stroke-width="1" fill="none"></path></g></g><g stroke-linecap="round" transform="translate(586.1568763732818 488.0194805194807) rotate(0 77.72727272727276 22.727272727272748)"><path d="M1.32 -0.27 C34.99 -0.13, 64.76 0.47, 153.66 1.26 M-0.52 -0.59 C52.28 -0.43, 104.36 -1.32, 155.38 -1 M153.49 1.35 C155.34 17.41, 154.8 36.97, 153.58 45.84 M155.17 -0.77 C155.72 9.72, 155.09 17.72, 155.59 44.73 M154.02 47.01 C123.06 46.18, 89.76 44.56, 0.4 46.01 M156 44.48 C98.47 46.68, 40.5 47, 0.81 45.03 M1.23 44.61 C0.69 36.79, 0.08 23.39, 1.16 0.84 M-0.67 46.2 C-0.28 30.75, 0.37 16.34, 0.66 -0.3" stroke="#000000" stroke-width="1" fill="none"></path></g><g transform="translate(595.2477854641907 491.79220779220793) rotate(0 66 17)"><text x="0" y="27" font-family="Cascadia, Segoe UI Emoji" font-size="28px" fill="#000000" text-anchor="start" style="white-space: pre;" direction="ltr">Compiler</text></g><g stroke-linecap="round"><g transform="translate(657.0659672823723 535.2922077922079) rotate(0 0.46911811636951484 80.6274904925605)"><path d="M-1.18 -0.08 C-1.34 27.07, -0.46 135.66, -0.01 162.42 M0.4 -1.16 C0.51 25.68, 2.04 133.63, 2.14 160.69" stroke="#000000" stroke-width="1" fill="none"></path></g><g transform="translate(657.0659672823723 535.2922077922079) rotate(0 0.46911811636951484 80.6274904925605)"><path d="M-8.52 130.8 C-3.22 144.14, -2.42 155.09, 1.1 159.51 M-8.97 132.52 C-6.15 141.89, -2.79 148.53, 1.15 161.37" stroke="#000000" stroke-width="1" fill="none"></path></g><g transform="translate(657.0659672823723 535.2922077922079) rotate(0 0.46911811636951484 80.6274904925605)"><path d="M12 130.61 C9.47 143.82, 2.45 154.84, 1.1 159.51 M11.55 132.33 C8.23 141.71, 5.44 148.41, 1.15 161.37" stroke="#000000" stroke-width="1" fill="none"></path></g></g><g transform="translate(473.31596728237275 359.0649350649352) rotate(0 279.5 17)"><text x="0" y="27" font-family="Cascadia, Segoe UI Emoji" font-size="28px" fill="#000000" text-anchor="start" style="white-space: pre;" direction="ltr">System.out.println("Hello World");</text></g><g transform="translate(540.6796036460089 703.4740259740261) rotate(0 140 17)"><text x="0" y="27" font-family="Cascadia, Segoe UI Emoji" font-size="28px" fill="#000000" text-anchor="start" style="white-space: pre;" direction="ltr">Bytecode 11111000</text></g><g stroke-linecap="round" transform="translate(276.3614218278272 794.3603896103896) rotate(0 505.90909090909093 153.18181818181822)"><path d="M-0.2 0.45 C221.68 -4.61, 443.16 -4.55, 1012.33 0.76 M-0.26 -0.15 C295.24 -3.2, 590.27 -3.46, 1011.99 -0.38 M1012.38 1.04 C1008.85 68.34, 1010.54 132.74, 1011.53 306.31 M1011.15 0.57 C1010.61 106.61, 1009.96 212.96, 1011.46 305.92 M1011.6 306.32 C705.49 309.05, 400.76 309.13, 0.7 305.91 M1011.97 306.45 C738.28 308.67, 464.23 308.57, -0.38 306.43 M0.74 306 C-0.98 221.55, -0.55 138.6, -0.87 0.94 M-0.14 306.48 C0.15 239.45, -0.17 172.74, -0.29 -0.46" stroke="#000000" stroke-width="1" fill="none"></path></g><g transform="translate(544.8906426070479 800.577922077922) rotate(0 250.5 20)"><text x="0" y="32" font-family="Cascadia, Segoe UI Emoji" font-size="32.84425620191892px" fill="#000000" text-anchor="start" style="white-space: pre;" direction="ltr">JVM: Java Virtual Maschine</text></g><g transform="translate(867.0010322174376 925.788961038961) rotate(0 197 34)"><text x="0" y="27" font-family="Cascadia, Segoe UI Emoji" font-size="28px" fill="#000000" text-anchor="start" style="white-space: pre;" direction="ltr">Java Runtime Environment</text><text x="0" y="61" font-family="Cascadia, Segoe UI Emoji" font-size="28px" fill="#000000" text-anchor="start" style="white-space: pre;" direction="ltr">JRE</text></g><g transform="translate(309.8581750745804 905.7889610389611) rotate(0 164 68)"><text x="0" y="27" font-family="Cascadia, Segoe UI Emoji" font-size="28px" fill="#000000" text-anchor="start" style="white-space: pre;" direction="ltr">Java Development Kit</text><text x="0" y="61" font-family="Cascadia, Segoe UI Emoji" font-size="28px" fill="#000000" text-anchor="start" style="white-space: pre;" direction="ltr">JDK</text><text x="0" y="95" font-family="Cascadia, Segoe UI Emoji" font-size="28px" fill="#000000" text-anchor="start" style="white-space: pre;" direction="ltr">+ Sources</text><text x="0" y="129" font-family="Cascadia, Segoe UI Emoji" font-size="28px" fill="#000000" text-anchor="start" style="white-space: pre;" direction="ltr">+ Dokumentation</text></g><g stroke-linecap="round"><g transform="translate(729.7314466469388 855.4953160643222) rotate(0 1.0098521539502485 116.62644403922775)"><path d="M-0.59 0.07 C-0.3 39.1, 1.98 195.48, 2.61 234.19 M1.3 -0.94 C1.34 37.76, 1.34 193.53, 1.56 232.55" stroke="#000000" stroke-width="1" fill="none"></path></g></g><g transform="translate(341.2867465031518 1294.36038961039) rotate(0 58 17)"><text x="0" y="27" font-family="Cascadia, Segoe UI Emoji" font-size="28px" fill="#000000" text-anchor="start" style="white-space: pre;" direction="ltr">Windows</text></g><g transform="translate(755.572460788866 1300.0746753246754) rotate(0 41.5 17)"><text x="0" y="27" font-family="Cascadia, Segoe UI Emoji" font-size="28px" fill="#000000" text-anchor="start" style="white-space: pre;" direction="ltr">Linux</text></g><g transform="translate(1128.4296036460087 1300.0746753246754) rotate(0 41.5 17)"><text x="0" y="27" font-family="Cascadia, Segoe UI Emoji" font-size="28px" fill="#000000" text-anchor="start" style="white-space: pre;" direction="ltr">MacOS</text></g><g stroke-linecap="round" transform="translate(294.14388936029457 1245.003246753247) rotate(0 115.71428571428572 75.00000000000006)"><path d="M0.91 -0.86 C83.55 0.71, 165.44 2, 231.36 -0.73 M-0.73 -0.03 C83.43 1.17, 166.36 0.45, 231.19 -0.11 M229.84 -0.44 C231.97 47.82, 232.27 91.37, 230.78 148.05 M232.08 0.6 C230.57 54.71, 231.8 109.47, 231.35 149.58 M231.71 150.34 C140.72 151.26, 49.1 150.07, 0.93 149.41 M231.61 149.98 C158.26 148.63, 83.81 148.16, 0.79 150.06 M-1.49 151.67 C1.49 117.07, -1.53 87.78, 0.73 0.55 M-0.07 150.33 C0.7 102.48, 1.9 53.76, -0.11 -0.37" stroke="#000000" stroke-width="1" fill="none"></path></g><g stroke-linecap="round" transform="translate(687.0010322174376 1251.4318181818182) rotate(0 115.71428571428575 75.00000000000006)"><path d="M-0.38 0.21 C75.23 2.02, 146.83 1, 229.78 1.09 M0.51 -0.73 C69.53 -0.97, 139.11 -1.34, 231.07 0.8 M231.83 0.72 C232.88 44.18, 231.47 88.72, 230.73 150.39 M231.4 0.88 C230.4 33.74, 229.84 67.93, 231.5 149.13 M232.84 151.2 C162.39 147.17, 96.45 149.15, 0.47 150.37 M231.71 149.59 C180.94 150.46, 129.44 149.77, -0.32 149.92 M1.68 149.92 C0.26 100.24, -0.25 46.46, 0.08 -0.85 M1 149.11 C0.84 112.52, 0.63 75.41, 0.83 0.27" stroke="#000000" stroke-width="1" fill="none"></path></g><g stroke-linecap="round" transform="translate(1052.7153179317233 1248.5746753246754) rotate(0 115.71428571428572 75.00000000000006)"><path d="M0.56 -0.83 C52.34 1.34, 102.66 -0.05, 230.8 -0.16 M0.71 -0.03 C79.51 1.11, 158.68 0.13, 231.46 -0.36 M233.42 -1.77 C229.17 37.34, 228.76 75.4, 233.09 150.53 M232.35 -0.46 C230.22 58.79, 231.14 119.68, 231.28 149.04 M232.06 151.29 C142.8 149.75, 53.56 151.14, -0.59 150.73 M232.11 149.58 C148.97 149.29, 65.49 148.7, 0.71 150.26 M1.96 149.97 C0.99 97.48, 0.97 42.81, -1.04 0.55 M-0.29 149.62 C-1.74 92.59, -1.52 33.91, -0.13 0.04" stroke="#000000" stroke-width="1" fill="none"></path></g><g stroke-linecap="round"><g transform="translate(408.429603646009 1230.7175324675325) rotate(0 215.66596133687938 -58.22745035520887)"><path d="M0.91 -1.04 C72.77 -20.51, 359.62 -98.28, 431.41 -117.48 M-0.07 1.02 C71.6 -18.21, 358.6 -96.27, 430.45 -116.11" stroke="#000000" stroke-width="1" fill="none"></path></g><g transform="translate(408.429603646009 1230.7175324675325) rotate(0 215.66596133687938 -58.22745035520887)"><path d="M404.22 -98.81 C413.38 -104.16, 423.38 -111.73, 428.89 -116.32 M406.18 -98.29 C410.58 -103.3, 416.47 -106.8, 429.92 -115.15" stroke="#000000" stroke-width="1" fill="none"></path></g><g transform="translate(408.429603646009 1230.7175324675325) rotate(0 215.66596133687938 -58.22745035520887)"><path d="M398.81 -118.6 C409.59 -117.63, 421.33 -118.84, 428.89 -116.32 M400.76 -118.09 C406.51 -118.89, 413.56 -118.14, 429.92 -115.15" stroke="#000000" stroke-width="1" fill="none"></path></g></g><g stroke-linecap="round"><g transform="translate(827.0010322174376 1245.003246753247) rotate(0 0.8327045236847255 -62.03422292902002)"><path d="M-0.54 -0.27 C-0.14 -20.78, 1.94 -103.21, 2.2 -123.8 M1.38 -1.46 C1.71 -21.78, 1.88 -102.51, 1.66 -122.75" stroke="#000000" stroke-width="1" fill="none"></path></g><g transform="translate(827.0010322174376 1245.003246753247) rotate(0 0.8327045236847255 -62.03422292902002)"><path d="M11.56 -93.3 C7.7 -103.23, 4.84 -110.5, 1.55 -121.93 M11.89 -93.77 C8.64 -104.91, 3.37 -116.34, 1.18 -122.66" stroke="#000000" stroke-width="1" fill="none"></path></g><g transform="translate(827.0010322174376 1245.003246753247) rotate(0 0.8327045236847255 -62.03422292902002)"><path d="M-8.96 -93.24 C-7.03 -103.09, -4.09 -110.38, 1.55 -121.93 M-8.63 -93.7 C-4.05 -105.02, -1.49 -116.47, 1.18 -122.66" stroke="#000000" stroke-width="1" fill="none"></path></g></g><g stroke-linecap="round"><g transform="translate(1099.8581750745805 1235.003246753247) rotate(0 -128.14291575620624 -59.21130501878048)"><path d="M-0.08 0.75 C-42.55 -18.97, -212.83 -99.11, -255.42 -119.17 M-1.58 0.09 C-44.13 -19.39, -213.75 -98.13, -256.21 -117.94" stroke="#000000" stroke-width="1" fill="none"></path></g><g transform="translate(1099.8581750745805 1235.003246753247) rotate(0 -128.14291575620624 -59.21130501878048)"><path d="M-225.08 -114.86 C-234.76 -115.82, -242.91 -116.86, -257.18 -116.47 M-226.81 -115.73 C-234.52 -116.81, -243.21 -117.71, -255.98 -117.45" stroke="#000000" stroke-width="1" fill="none"></path></g><g transform="translate(1099.8581750745805 1235.003246753247) rotate(0 -128.14291575620624 -59.21130501878048)"><path d="M-233.73 -96.25 C-241.11 -101.85, -247.1 -107.53, -257.18 -116.47 M-235.46 -97.13 C-240.63 -103.36, -246.93 -109.4, -255.98 -117.45" stroke="#000000" stroke-width="1" fill="none"></path></g></g><g transform="translate(297.00103221743757 1407.2175324675325) rotate(0 106.42857142857142 72.37142857142862)"><text x="0" y="116.74285714285716" font-family="Cascadia, Segoe UI Emoji" font-size="119.20000000000002px" fill="#1864ab" text-anchor="start" style="white-space: pre;" direction="ltr">JRE</text></g><g transform="translate(699.1438893602947 1419.7746753246754) rotate(0 106.42857142857142 72.37142857142862)"><text x="0" y="116.74285714285716" font-family="Cascadia, Segoe UI Emoji" font-size="119.20000000000002px" fill="#5c940d" text-anchor="start" style="white-space: pre;" direction="ltr">JRE</text></g><g transform="translate(1066.2867465031518 1412.631818181818) rotate(0 106.42857142857144 72.37142857142862)"><text x="0" y="116.74285714285716" font-family="Cascadia, Segoe UI Emoji" font-size="119.20000000000002px" fill="#862e9c" text-anchor="start" style="white-space: pre;" direction="ltr">JRE</text></g><g stroke-linecap="round"><g transform="translate(374.75296296789963 1567.6725023089637) rotate(0 -0.7422128671168231 55.610478975996216)"><path d="M-1.04 0.56 C-1.12 18.96, -1.1 93.05, -1.46 111.41 M0.61 -0.19 C0.52 18.37, -1.83 90.91, -2.09 109.61" stroke="#1864ab" stroke-width="1" fill="none"></path></g><g transform="translate(374.75296296789963 1567.6725023089637) rotate(0 -0.7422128671168231 55.610478975996216)"><path d="M-10.74 82.18 C-8.35 85.42, -7.44 93.78, -1.24 111.43 M-11.71 80.7 C-8.12 92.04, -3.86 103.54, -2.19 109.18" stroke="#1864ab" stroke-width="1" fill="none"></path></g><g transform="translate(374.75296296789963 1567.6725023089637) rotate(0 -0.7422128671168231 55.610478975996216)"><path d="M9.78 82.68 C7.75 85.63, 4.25 93.88, -1.24 111.43 M8.81 81.19 C4.21 92.24, 0.29 103.54, -2.19 109.18" stroke="#1864ab" stroke-width="1" fill="none"></path></g></g><g transform="translate(301.0724607888661 1710.8603896103896) rotate(0 74.5 17)"><text x="0" y="27" font-family="Cascadia, Segoe UI Emoji" font-size="28px" fill="#000000" text-anchor="start" style="white-space: pre;" direction="ltr">101110101</text></g><g transform="translate(749.6438893602947 1715.146103896104) rotate(0 74.5 17)"><text x="0" y="27" font-family="Cascadia, Segoe UI Emoji" font-size="28px" fill="#000000" text-anchor="start" style="white-space: pre;" direction="ltr">101110101</text></g><g transform="translate(1132.5010322174376 1700.86038961039) rotate(0 74.5 17)"><text x="0" y="27" font-family="Cascadia, Segoe UI Emoji" font-size="28px" fill="#000000" text-anchor="start" style="white-space: pre;" direction="ltr">101110101</text></g><g stroke-linecap="round"><g transform="translate(810.8909611690842 1585.3183493288213) rotate(0 0.4300427091907011 59.00265198575869)"><path d="M-0.28 -0.41 C-0.21 19.55, -0.17 98.56, 0 118.62 M1.78 -1.68 C1.72 18.52, -0.68 99.76, -0.92 119.68" stroke="#5c940d" stroke-width="1" fill="none"></path></g><g transform="translate(810.8909611690842 1585.3183493288213) rotate(0 0.4300427091907011 59.00265198575869)"><path d="M-11.26 91.38 C-9.77 100.23, -4.96 105.36, -0.32 119.16 M-11.37 91.84 C-7.79 98.19, -5.73 106.64, -0.37 119.81" stroke="#5c940d" stroke-width="1" fill="none"></path></g><g transform="translate(810.8909611690842 1585.3183493288213) rotate(0 0.4300427091907011 59.00265198575869)"><path d="M9.26 91.82 C5.25 100.51, 4.56 105.52, -0.32 119.16 M9.15 92.28 C7.2 98.53, 3.73 106.87, -0.37 119.81" stroke="#5c940d" stroke-width="1" fill="none"></path></g></g><g stroke-linecap="round"><g transform="translate(1177.5879971520308 1562.4612064716785) rotate(0 1.5850354423524209 65.39055535970249)"><path d="M1.05 -0.31 C1.54 21.48, 2.88 108.92, 3.03 131.04 M0.14 -1.52 C0.53 20.4, 2.36 110.3, 2.5 132.3" stroke="#862e9c" stroke-width="1" fill="none"></path></g><g transform="translate(1177.5879971520308 1562.4612064716785) rotate(0 1.5850354423524209 65.39055535970249)"><path d="M-8.68 105.62 C-5.66 112.36, -0.07 120.99, 1.97 133.28 M-8.7 103.97 C-3.74 113.74, -0.89 122.6, 1.51 132.88" stroke="#862e9c" stroke-width="1" fill="none"></path></g><g transform="translate(1177.5879971520308 1562.4612064716785) rotate(0 1.5850354423524209 65.39055535970249)"><path d="M11.83 105.32 C8.52 112.33, 7.76 121.06, 1.97 133.28 M11.82 103.67 C9.91 113.56, 5.88 122.51, 1.51 132.88" stroke="#862e9c" stroke-width="1" fill="none"></path></g></g><g stroke-linecap="round"><g transform="translate(1445.572460788866 273.5746753246753) rotate(0 0.12302883820609622 728.7088020323922)"><path d="M-0.45 0.05 C-0.67 242.9, -0.14 1214.19, -0.25 1457.41 M1.51 -0.97 C1.03 241.97, -1.22 1215.3, -1.26 1458.39" stroke="#000000" stroke-width="1" fill="none"></path></g></g><g transform="translate(927.0010322174376 95.78896103896102) rotate(0 411.50000000000006 64.5)"><text x="0" y="35" font-family="Cascadia, Segoe UI Emoji" font-size="36px" fill="#000000" text-anchor="start" style="white-space: pre;" direction="ltr">- Betriebssystem und Platformunabh채ngig</text><text x="0" y="78" font-family="Cascadia, Segoe UI Emoji" font-size="36px" fill="#000000" text-anchor="start" style="white-space: pre;" direction="ltr">  (Cross - Plattform)</text><text x="0" y="121" font-family="Cascadia, Segoe UI Emoji" font-size="36px" fill="#000000" text-anchor="start" style="white-space: pre;" direction="ltr">- Objekte Orientierte Programmierung</text></g><g stroke-linecap="round" transform="translate(44.14388936029468 1893.5746753246754) rotate(0 254.2857142857143 157.14285714285722)"><path d="M-0.4 -0.69 C204.04 2.5, 407.01 2.72, 509.27 0.33 M-0.13 0.39 C195.39 -0.14, 391.26 0.19, 508.95 -0.02 M509.63 -0.34 C510.1 112.57, 511 223.64, 509.37 313.68 M508.14 0.04 C509.81 97.73, 508.73 195.92, 509.13 314.83 M508.67 314.21 C404.64 314.06, 302 314.13, 0.77 314.55 M508.59 314.49 C333.98 314.17, 159.29 314.26, 0.13 314.06 M0.47 313.34 C1.13 234.45, 0.7 156.33, -0.39 -0.69 M0.63 314.25 C-1.75 192.28, -1.83 69.88, -0.6 -0.35" stroke="#000000" stroke-width="1" fill="none"></path></g><g transform="translate(71.28674650315185 2006.0746753246751) rotate(0 222 43)"><text x="0" y="35" font-family="Cascadia, Segoe UI Emoji" font-size="36px" fill="#000000" text-anchor="start" style="white-space: pre;" direction="ltr">Java SE</text><text x="0" y="78" font-family="Cascadia, Segoe UI Emoji" font-size="36px" fill="#000000" text-anchor="start" style="white-space: pre;" direction="ltr">Java Standard Edition</text></g><g stroke-linecap="round" transform="translate(647.0010322174373 1896.4318181818176) rotate(0 254.2857142857143 157.14285714285722)"><path d="M0.1 -0.36 C159.13 0.68, 318.23 1.01, 509.11 0.72 M0.36 -0.31 C150.08 1.55, 299.36 0.99, 508.51 -0.12 M507.95 1.28 C509.14 72.83, 508.73 145.82, 507.66 314.71 M508.97 -0.27 C510.68 87.25, 510.02 173.29, 509.06 314.1 M508.18 314.88 C377.62 315.31, 246.7 316.31, -0.12 313.7 M508.34 314.09 C310.06 313.93, 111.74 314.53, -0.11 313.94 M1.35 313.93 C1.32 233.15, 1.74 152.66, -1.06 0.06 M0.64 314.75 C0.9 229.27, 1.55 143.02, 0.14 -0.12" stroke="#000000" stroke-width="1" fill="none"></path></g><g transform="translate(659.8581750745802 2004.646103896103) rotate(0 242.99999999999997 43)"><text x="0" y="35" font-family="Cascadia, Segoe UI Emoji" font-size="36px" fill="#000000" text-anchor="start" style="white-space: pre;" direction="ltr">Java EE</text><text x="0" y="78" font-family="Cascadia, Segoe UI Emoji" font-size="36px" fill="#000000" text-anchor="start" style="white-space: pre;" direction="ltr">Java Enterprise Edition</text></g><g stroke-linecap="round" transform="translate(1214.143889360294 1903.5746753246754) rotate(0 254.28571428571433 157.14285714285722)"><path d="M-0.76 -0.63 C111.59 2.02, 224.16 1.51, 508.83 -0.72 M-0.25 -0.33 C124.23 0.78, 247.88 1.19, 508.3 -0.39 M508.64 0.01 C509.11 87.42, 509.8 174.47, 507.8 314.61 M509.03 -0.63 C507.77 114.87, 508.2 231.04, 508.25 313.93 M508.92 314.08 C357.2 312.87, 205.32 312.24, -0.7 313.69 M508.74 314.68 C317.98 314.32, 126.45 313.87, 0.07 314.41 M0.17 314.96 C0.83 220.43, 1.36 126.9, -0.72 -1.13 M0.55 314.78 C-1.63 247.07, -1.47 178.32, -0.26 -0.24" stroke="#000000" stroke-width="1" fill="none"></path></g><g transform="translate(1235.5724607888656 2001.7889610389607) rotate(0 137.5 43)"><text x="0" y="35" font-family="Cascadia, Segoe UI Emoji" font-size="36px" fill="#000000" text-anchor="start" style="white-space: pre;" direction="ltr">Java eee</text><text x="0" y="78" font-family="Cascadia, Segoe UI Emoji" font-size="36px" fill="#000000" text-anchor="start" style="white-space: pre;" direction="ltr">Java Triple e</text></g><g stroke-linecap="round"><g transform="translate(10.643373251575724 1814.5473056435656) rotate(0 1296.8774323318419 2.9098218284640325)"><path d="M0.53 -0.08 C433.11 0.71, 2162.11 4.55, 2594.4 5.7 M-0.64 -1.17 C431.94 -0.3, 2161.49 5.99, 2593.92 6.99" stroke="#000000" stroke-width="1" fill="none"></path></g></g><g stroke-linecap="round" transform="translate(1774.143889360295 1899.2889610389611) rotate(0 254.28571428571433 157.14285714285722)"><path d="M-0.71 -0.61 C184.32 1.65, 367.11 1.92, 508.2 -0.63 M0.22 0.13 C126.17 1.05, 251.84 0.95, 508.59 0.31 M509.18 0.34 C509.3 107.27, 508.86 214.96, 508.09 313.83 M508.22 0.36 C508.28 109.51, 508.77 219.91, 508.56 313.68 M508.94 313.72 C360.6 315.2, 212.36 315.65, -0.41 314.77 M508.96 314.68 C321.7 316.06, 134.19 316.17, -0.38 314.18 M-0.82 313.42 C0.55 204.95, -0.05 95.83, -0.38 0.79 M0.68 314.21 C-1.19 198.2, -0.49 82.75, 0.01 0.05" stroke="#000000" stroke-width="1" fill="none"></path></g><g transform="translate(1795.5724607888665 1997.5032467532465) rotate(0 126.5 43)"><text x="0" y="35" font-family="Cascadia, Segoe UI Emoji" font-size="36px" fill="#000000" text-anchor="start" style="white-space: pre;" direction="ltr">Java Android</text><text x="0" y="78" font-family="Cascadia, Segoe UI Emoji" font-size="36px" fill="#000000" text-anchor="start" style="white-space: pre;" direction="ltr">Kotlin</text></g><g transform="translate(28.429603646008957 2293.2175324675327) rotate(0 274.5 43)"><text x="0" y="35" font-family="Cascadia, Segoe UI Emoji" font-size="36px" fill="#343a40" text-anchor="start" style="white-space: pre;" direction="ltr">Desktop Applikationen</text><text x="0" y="78" font-family="Cascadia, Segoe UI Emoji" font-size="36px" fill="#343a40" text-anchor="start" style="white-space: pre;" direction="ltr">Client / Serveranwendungen</text></g><g transform="translate(657.0010322174375 2273.2175324675327) rotate(0 190 64.5)"><text x="0" y="35" font-family="Cascadia, Segoe UI Emoji" font-size="36px" fill="#343a40" text-anchor="start" style="white-space: pre;" direction="ltr">Webanwendungen,</text><text x="0" y="78" font-family="Cascadia, Segoe UI Emoji" font-size="36px" fill="#343a40" text-anchor="start" style="white-space: pre;" direction="ltr">Webshops, Komplexe</text><text x="0" y="121" font-family="Cascadia, Segoe UI Emoji" font-size="36px" fill="#343a40" text-anchor="start" style="white-space: pre;" direction="ltr">Internetanwendung</text></g><g transform="translate(1219.8581750745802 2281.788961038961) rotate(0 232.5 64.5)"><text x="0" y="35" font-family="Cascadia, Segoe UI Emoji" font-size="36px" fill="#343a40" text-anchor="start" style="white-space: pre;" direction="ltr">Handheld-Ger채te</text><text x="0" y="78" font-family="Cascadia, Segoe UI Emoji" font-size="36px" fill="#343a40" text-anchor="start" style="white-space: pre;" direction="ltr">Embedded Systems</text><text x="0" y="121" font-family="Cascadia, Segoe UI Emoji" font-size="36px" fill="#343a40" text-anchor="start" style="white-space: pre;" direction="ltr">Bankarten / SIM-Karten</text></g><g transform="translate(1785.572460788866 2288.931818181818) rotate(0 243 21.5)"><text x="0" y="35" font-family="Cascadia, Segoe UI Emoji" font-size="36px" fill="#343a40" text-anchor="start" style="white-space: pre;" direction="ltr">Mobile Apps f체r Android</text></g></svg>