<svg version="1.1" xmlns="http://www.w3.org/2000/svg" viewBox="0 0 1457.6666666666667 1885.4166666666667" width="1457.6666666666667" height="1885.4166666666667">
  <!-- svg-source:excalidraw -->
  
  <defs>
    <style>
      @font-face {
        font-family: "Virgil";
        src: url("https://excalidraw.com/Virgil.woff2");
      }
      @font-face {
        font-family: "Cascadia";
        src: url("https://excalidraw.com/Cascadia.woff2");
      }
    </style>
  </defs>
  <rect x="0" y="0" width="1457.6666666666667" height="1885.4166666666667" fill="#ffffff"></rect><g transform="translate(256.33333333333337 10) rotate(0 221.00000000000006 45)"><text x="0" y="32" font-family="Virgil, Segoe UI Emoji" font-size="36px" fill="#000000" text-anchor="start" style="white-space: pre;" direction="ltr">Methoden und Funktionen,</text><text x="0" y="77" font-family="Virgil, Segoe UI Emoji" font-size="36px" fill="#000000" text-anchor="start" style="white-space: pre;" direction="ltr"></text></g><g transform="translate(195 74.66666666666669) rotate(0 268 12.5)"><text x="0" y="18" font-family="Virgil, Segoe UI Emoji" font-size="20px" fill="#000000" text-anchor="start" style="white-space: pre;" direction="ltr">(Subroutinen, Unterprogramme, Unterprogrammtechniken)</text></g><g transform="translate(24.66666666666663 121.33333333333334) rotate(0 328.99999999999994 292.5)"><text x="0" y="32" font-family="Virgil, Segoe UI Emoji" font-size="36px" fill="#000000" text-anchor="start" style="white-space: pre;" direction="ltr">f (x) = 5          </text><text x="0" y="77" font-family="Virgil, Segoe UI Emoji" font-size="36px" fill="#000000" text-anchor="start" style="white-space: pre;" direction="ltr">f (x) = b</text><text x="0" y="122" font-family="Virgil, Segoe UI Emoji" font-size="36px" fill="#000000" text-anchor="start" style="white-space: pre;" direction="ltr">-----------</text><text x="0" y="167" font-family="Virgil, Segoe UI Emoji" font-size="36px" fill="#000000" text-anchor="start" style="white-space: pre;" direction="ltr">Mathematische Funktionen / Probleme</text><text x="0" y="212" font-family="Virgil, Segoe UI Emoji" font-size="36px" fill="#000000" text-anchor="start" style="white-space: pre;" direction="ltr">-&gt; Haben immer ein Ergebnis:</text><text x="0" y="257" font-family="Virgil, Segoe UI Emoji" font-size="36px" fill="#000000" text-anchor="start" style="white-space: pre;" direction="ltr">    -&gt; Unlösbar</text><text x="0" y="302" font-family="Virgil, Segoe UI Emoji" font-size="36px" fill="#000000" text-anchor="start" style="white-space: pre;" direction="ltr">    -&gt; Nicht bewiesen</text><text x="0" y="347" font-family="Virgil, Segoe UI Emoji" font-size="36px" fill="#000000" text-anchor="start" style="white-space: pre;" direction="ltr">    -&gt; Nicht widerlegt</text><text x="0" y="392" font-family="Virgil, Segoe UI Emoji" font-size="36px" fill="#000000" text-anchor="start" style="white-space: pre;" direction="ltr">    -&gt; Es richtig</text><text x="0" y="437" font-family="Virgil, Segoe UI Emoji" font-size="36px" fill="#000000" text-anchor="start" style="white-space: pre;" direction="ltr">    -&gt; Es nicht richtig</text><text x="0" y="482" font-family="Virgil, Segoe UI Emoji" font-size="36px" fill="#000000" text-anchor="start" style="white-space: pre;" direction="ltr">    -&gt; Zahl</text><text x="0" y="527" font-family="Virgil, Segoe UI Emoji" font-size="36px" fill="#000000" text-anchor="start" style="white-space: pre;" direction="ltr">    -&gt; Zustand</text><text x="0" y="572" font-family="Virgil, Segoe UI Emoji" font-size="36px" fill="#000000" text-anchor="start" style="white-space: pre;" direction="ltr"></text></g><g transform="translate(24.666666666666742 731) rotate(0 711.5 180)"><text x="0" y="32" font-family="Virgil, Segoe UI Emoji" font-size="36px" fill="#000000" text-anchor="start" style="white-space: pre;" direction="ltr">Unabhängig von der Programmiersprache kann folgendes definiert werden:</text><text x="0" y="77" font-family="Virgil, Segoe UI Emoji" font-size="36px" fill="#000000" text-anchor="start" style="white-space: pre;" direction="ltr"></text><text x="0" y="122" font-family="Virgil, Segoe UI Emoji" font-size="36px" fill="#000000" text-anchor="start" style="white-space: pre;" direction="ltr">o-&gt; Funktionen haben immer ein Ergebnis (Rückgabewert) und Rückgabetyp</text><text x="0" y="167" font-family="Virgil, Segoe UI Emoji" font-size="36px" fill="#000000" text-anchor="start" style="white-space: pre;" direction="ltr">o-&gt; Methoden haben keinen Rückgabewert und keinen Rückgabetyp</text><text x="0" y="212" font-family="Virgil, Segoe UI Emoji" font-size="36px" fill="#000000" text-anchor="start" style="white-space: pre;" direction="ltr"></text><text x="0" y="257" font-family="Virgil, Segoe UI Emoji" font-size="36px" fill="#000000" text-anchor="start" style="white-space: pre;" direction="ltr">Beide Konstrukte dienen dazu Aufgaben zu zentralisieren. Dadurch werden diese</text><text x="0" y="302" font-family="Virgil, Segoe UI Emoji" font-size="36px" fill="#000000" text-anchor="start" style="white-space: pre;" direction="ltr">wartbarer.</text><text x="0" y="347" font-family="Virgil, Segoe UI Emoji" font-size="36px" fill="#000000" text-anchor="start" style="white-space: pre;" direction="ltr"></text></g><g transform="translate(19 1240.1666666666667) rotate(0 358.5 64.5)"><text x="0" y="35" font-family="Cascadia, Segoe UI Emoji" font-size="36px" fill="#000000" text-anchor="start" style="white-space: pre;" direction="ltr">private static double calculate(){</text><text x="0" y="78" font-family="Cascadia, Segoe UI Emoji" font-size="36px" fill="#000000" text-anchor="start" style="white-space: pre;" direction="ltr">    return (1D + 2D);</text><text x="0" y="121" font-family="Cascadia, Segoe UI Emoji" font-size="36px" fill="#000000" text-anchor="start" style="white-space: pre;" direction="ltr">}</text></g><g transform="translate(309 1073.6666666666667) rotate(0 107 22.5)"><text x="0" y="32" font-family="Virgil, Segoe UI Emoji" font-size="36px" fill="#862e9c" text-anchor="start" style="white-space: pre;" direction="ltr">Rückgabetyp</text></g><g stroke-linecap="round"><g transform="translate(396.0112844771985 1127.8986271156994) rotate(0 0.5628621390229682 50.42021309476337)"><path d="M-0.57 -0.47 C-0.3 16.23, 1.25 84.28, 1.69 101.11 M1.33 -1.77 C1.43 15.05, 0.65 85.4, 0.67 102.61" stroke="#862e9c" stroke-width="4" fill="none"></path></g><g transform="translate(396.0112844771985 1127.8986271156994) rotate(0 0.5628621390229682 50.42021309476337)"><path d="M-10.22 74.13 C-6.25 83.5, -4.12 93.58, 0.95 102.27 M-9.52 73.86 C-6.45 82.03, -4.86 89.47, 0.57 102.21" stroke="#862e9c" stroke-width="4" fill="none"></path></g><g transform="translate(396.0112844771985 1127.8986271156994) rotate(0 0.5628621390229682 50.42021309476337)"><path d="M10.3 74.25 C7.99 83.49, 3.84 93.52, 0.95 102.27 M11 73.97 C8.67 82.05, 4.85 89.46, 0.57 102.21" stroke="#862e9c" stroke-width="4" fill="none"></path></g></g><g transform="translate(689 1289.6666666666667) rotate(0 118.5 22.5)"><text x="0" y="32" font-family="Virgil, Segoe UI Emoji" font-size="36px" fill="#087f5b" text-anchor="start" style="white-space: pre;" direction="ltr">Rückgabewert</text></g><g stroke-linecap="round"><g transform="translate(686 1310.5127569483152) rotate(0 -106.10349438359026 0.24946258892958895)"><path d="M0.2 -1.12 C-35.25 -0.94, -176.43 1.35, -211.99 1.62 M-1.15 0.91 C-36.73 0.67, -176.93 -0.35, -212.41 -0.26" stroke="#087f5b" stroke-width="4" fill="none"></path></g><g transform="translate(686 1310.5127569483152) rotate(0 -106.10349438359026 0.24946258892958895)"><path d="M-186.05 -8.75 C-193.46 -7.03, -205.47 -4.8, -210.96 -0.79 M-184.51 -9.8 C-193.66 -6.98, -203.43 -4.36, -212.05 0.43" stroke="#087f5b" stroke-width="4" fill="none"></path></g><g transform="translate(686 1310.5127569483152) rotate(0 -106.10349438359026 0.24946258892958895)"><path d="M-186.11 11.77 C-193.6 6.15, -205.58 1.03, -210.96 -0.79 M-184.58 10.72 C-193.52 6.64, -203.27 2.35, -212.05 0.43" stroke="#087f5b" stroke-width="4" fill="none"></path></g></g><g transform="translate(20 1071.6666666666667) rotate(0 75 22.5)"><text x="0" y="32" font-family="Virgil, Segoe UI Emoji" font-size="36px" fill="#000000" text-anchor="start" style="white-space: pre;" direction="ltr">Funktion:</text></g><g transform="translate(13.5 1746.4166666666667) rotate(0 411.5 64.5)"><text x="0" y="35" font-family="Cascadia, Segoe UI Emoji" font-size="36px" fill="#000000" text-anchor="start" style="white-space: pre;" direction="ltr">private static void calculate(){</text><text x="0" y="78" font-family="Cascadia, Segoe UI Emoji" font-size="36px" fill="#000000" text-anchor="start" style="white-space: pre;" direction="ltr">    //Anweisungen die ausgeführt werden</text><text x="0" y="121" font-family="Cascadia, Segoe UI Emoji" font-size="36px" fill="#000000" text-anchor="start" style="white-space: pre;" direction="ltr">}</text></g><g transform="translate(173.5 1581.9166666666667) rotate(0 367 22.5)"><text x="0" y="32" font-family="Virgil, Segoe UI Emoji" font-size="36px" fill="#862e9c" text-anchor="start" style="white-space: pre;" direction="ltr">void == nichts / leer -&gt; Kein Rückgabetyp</text></g><g stroke-linecap="round"><g transform="translate(381.90126072326393 1638.086085357095) rotate(0 1.0745781221215225 56.435784093755956)"><path d="M-1.03 0.64 C-0.52 19.08, 2.73 92.97, 3.18 111.62 M0.63 -0.06 C1.05 18.45, 2.75 94.52, 2.74 112.93" stroke="#862e9c" stroke-width="4" fill="none"></path></g><g transform="translate(381.90126072326393 1638.086085357095) rotate(0 1.0745781221215225 56.435784093755956)"><path d="M-6.81 86.51 C-5.02 92.87, -0.2 104.31, 3.69 112.04 M-8.39 84.82 C-4.88 94.06, -0.22 103.15, 2.54 112.22" stroke="#862e9c" stroke-width="4" fill="none"></path></g><g transform="translate(381.90126072326393 1638.086085357095) rotate(0 1.0745781221215225 56.435784093755956)"><path d="M13.71 86.25 C9.07 92.51, 7.47 104.04, 3.69 112.04 M12.13 84.55 C8.6 93.9, 6.22 103.08, 2.54 112.22" stroke="#862e9c" stroke-width="4" fill="none"></path></g></g><g transform="translate(13.5 1579.9166666666667) rotate(0 77.5 22.5)"><text x="0" y="32" font-family="Virgil, Segoe UI Emoji" font-size="36px" fill="#000000" text-anchor="start" style="white-space: pre;" direction="ltr">Methode:</text></g><g transform="translate(10 1412.6666666666667) rotate(0 645 22.5)"><text x="0" y="32" font-family="Virgil, Segoe UI Emoji" font-size="36px" fill="#000000" text-anchor="start" style="white-space: pre;" direction="ltr">return Befehl liefert Rückgabwert an Aufrufer und beendet die Funktion.</text></g><g stroke-linecap="round"><g transform="translate(179 1420.6666666666667) rotate(0 -1.985507811885327 -49.69328598286961)"><path d="M0.56 -0.43 C-0.26 -16.89, -3.3 -82.68, -4.16 -98.96 M-0.6 -1.7 C-1.56 -17.98, -3.79 -81.24, -4.53 -97.67" stroke="#000000" stroke-width="4" fill="none"></path></g><g transform="translate(179 1420.6666666666667) rotate(0 -1.985507811885327 -49.69328598286961)"><path d="M6.13 -68.08 C1.93 -78.94, -0.83 -89.95, -5.06 -97.51 M7.81 -70.62 C3.09 -78.51, 0.24 -89.33, -3.63 -98.31" stroke="#000000" stroke-width="4" fill="none"></path></g><g transform="translate(179 1420.6666666666667) rotate(0 -1.985507811885327 -49.69328598286961)"><path d="M-14.37 -67.26 C-11.08 -78.52, -6.34 -89.83, -5.06 -97.51 M-12.7 -69.8 C-10.48 -77.83, -6.39 -88.93, -3.63 -98.31" stroke="#000000" stroke-width="4" fill="none"></path></g></g></svg>